# This file uses centimeters as units for non-parametric coordinates.

mtllib steve.mtl
g default
v 0.000000 -0.406400 0.050800
v 0.101600 -0.406400 0.050800
v 0.000000 -0.406400 -0.050800
v 0.101600 -0.406400 -0.050800
v 0.000000 -0.101600 0.050800
v 0.101600 -0.101600 0.050800
v 0.000000 -0.101600 -0.050800
v 0.101600 -0.101600 -0.050800
v -0.203200 -0.101600 0.050800
v -0.101600 -0.101600 0.050800
v -0.203200 -0.101600 -0.050800
v -0.101600 -0.101600 -0.050800
v -0.203200 0.203200 0.050800
v -0.101600 0.203200 0.050800
v -0.203200 0.203200 -0.050800
v -0.101600 0.203200 -0.050800
v -0.101600 -0.406400 0.050800
v 0.000000 -0.406400 0.050800
v -0.101600 -0.406400 -0.050800
v 0.000000 -0.406400 -0.050800
v -0.101600 -0.101600 0.050800
v 0.000000 -0.101600 0.050800
v -0.101600 -0.101600 -0.050800
v 0.000000 -0.101600 -0.050800
v -0.101600 -0.101600 0.050800
v 0.101600 -0.101600 0.050800
v -0.101600 -0.101600 -0.050800
v 0.101600 -0.101600 -0.050800
v -0.101600 0.203200 0.050800
v 0.101600 0.203200 0.050800
v -0.101600 0.203200 -0.050800
v 0.101600 0.203200 -0.050800
v 0.101600 -0.101600 0.050800
v 0.203200 -0.101600 0.050800
v 0.101600 -0.101600 -0.050800
v 0.203200 -0.101600 -0.050800
v 0.101600 0.203200 0.050800
v 0.203200 0.203200 0.050800
v 0.101600 0.203200 -0.050800
v 0.203200 0.203200 -0.050800
v -0.101600 0.203200 0.101600
v 0.101600 0.203200 0.101600
v -0.101600 0.203200 -0.101600
v 0.101600 0.203200 -0.101600
v -0.101600 0.406400 0.101600
v 0.101600 0.406400 0.101600
v -0.101600 0.406400 -0.101600
v 0.101600 0.406400 -0.101600
vt 0.375000 0.187500
vt 0.375000 0.250000
vt 0.437500 0.250000
vt 0.437500 0.187500
vt 0.312500 0.187500
vt 0.375000 0.187500
vt 0.375000 0.250000
vt 0.312500 0.250000
vt 0.312500 0.000000
vt 0.375000 0.000000
vt 0.437500 0.000000
vt 0.437500 0.187500
vt 0.500000 0.000000
vt 0.500000 0.187500
vt 0.250000 0.000000
vt 0.250000 0.187500
vt 0.750000 0.687500
vt 0.750000 0.750000
vt 0.812500 0.750000
vt 0.812500 0.687500
vt 0.687500 0.687500
vt 0.750000 0.687500
vt 0.750000 0.750000
vt 0.687500 0.750000
vt 0.687500 0.500000
vt 0.750000 0.500000
vt 0.812500 0.500000
vt 0.812500 0.687500
vt 0.875000 0.500000
vt 0.875000 0.687500
vt 0.625000 0.500000
vt 0.625000 0.687500
vt 0.125000 0.687500
vt 0.125000 0.750000
vt 0.187500 0.750000
vt 0.187500 0.687500
vt 0.062500 0.687500
vt 0.125000 0.687500
vt 0.125000 0.750000
vt 0.062500 0.750000
vt 0.062500 0.500000
vt 0.125000 0.500000
vt 0.187500 0.500000
vt 0.187500 0.687500
vt 0.250000 0.500000
vt 0.250000 0.687500
vt 0.000000 0.500000
vt 0.000000 0.687500
vt 0.437500 0.687500
vt 0.437500 0.750000
vt 0.562500 0.750000
vt 0.562375 0.687500
vt 0.312500 0.687500
vt 0.437500 0.687500
vt 0.437500 0.750000
vt 0.312500 0.750000
vt 0.312500 0.500000
vt 0.437500 0.500000
vt 0.500000 0.500000
vt 0.500000 0.687500
vt 0.625000 0.500000
vt 0.625000 0.687500
vt 0.250000 0.500000
vt 0.250000 0.687500
vt 0.625000 0.187500
vt 0.625000 0.250000
vt 0.687500 0.250000
vt 0.687500 0.187500
vt 0.562500 0.187500
vt 0.625000 0.187500
vt 0.625000 0.250000
vt 0.562500 0.250000
vt 0.562500 0.000000
vt 0.625000 0.000000
vt 0.687500 0.000000
vt 0.687500 0.187500
vt 0.750000 0.000000
vt 0.750000 0.187500
vt 0.500000 0.000000
vt 0.500000 0.187500
vt 0.250000 1.000000
vt 0.375000 1.000000
vt 0.375000 0.875000
vt 0.250000 0.875000
vt 0.125000 0.875000
vt 0.250000 0.875000
vt 0.250000 1.000000
vt 0.125000 1.000000
vt 0.125000 0.750000
vt 0.250000 0.750000
vt 0.375000 0.750000
vt 0.375000 0.875000
vt 0.500000 0.750000
vt 0.500000 0.875000
vt 0.000000 0.750000
vt 0.000000 0.875000
vn 0.000000 -1.000000 0.000000
vn 0.000000 -1.000000 0.000000
vn 0.000000 -1.000000 0.000000
vn 0.000000 -1.000000 0.000000
vn 0.000000 1.000000 0.000000
vn 0.000000 1.000000 0.000000
vn 0.000000 1.000000 0.000000
vn 0.000000 1.000000 0.000000
vn 0.000000 0.000000 1.000000
vn 0.000000 0.000000 1.000000
vn 0.000000 0.000000 1.000000
vn 0.000000 0.000000 1.000000
vn 1.000000 0.000000 0.000000
vn 1.000000 0.000000 0.000000
vn 1.000000 0.000000 0.000000
vn 1.000000 0.000000 0.000000
vn 0.000000 0.000000 -1.000000
vn 0.000000 0.000000 -1.000000
vn 0.000000 0.000000 -1.000000
vn 0.000000 0.000000 -1.000000
vn -1.000000 0.000000 0.000000
vn -1.000000 0.000000 0.000000
vn -1.000000 0.000000 0.000000
vn -1.000000 0.000000 0.000000
vn 0.000000 -1.000000 0.000000
vn 0.000000 -1.000000 0.000000
vn 0.000000 -1.000000 0.000000
vn 0.000000 -1.000000 0.000000
vn 0.000000 1.000000 0.000000
vn 0.000000 1.000000 0.000000
vn 0.000000 1.000000 0.000000
vn 0.000000 1.000000 0.000000
vn 0.000000 0.000000 1.000000
vn 0.000000 0.000000 1.000000
vn 0.000000 0.000000 1.000000
vn 0.000000 0.000000 1.000000
vn 1.000000 0.000000 0.000000
vn 1.000000 0.000000 0.000000
vn 1.000000 0.000000 0.000000
vn 1.000000 0.000000 0.000000
vn 0.000000 0.000000 -1.000000
vn 0.000000 0.000000 -1.000000
vn 0.000000 0.000000 -1.000000
vn 0.000000 0.000000 -1.000000
vn -1.000000 0.000000 0.000000
vn -1.000000 0.000000 0.000000
vn -1.000000 0.000000 0.000000
vn -1.000000 0.000000 0.000000
vn 0.000000 -1.000000 0.000000
vn 0.000000 -1.000000 0.000000
vn 0.000000 -1.000000 0.000000
vn 0.000000 -1.000000 0.000000
vn 0.000000 1.000000 0.000000
vn 0.000000 1.000000 0.000000
vn 0.000000 1.000000 0.000000
vn 0.000000 1.000000 0.000000
vn 0.000000 0.000000 1.000000
vn 0.000000 0.000000 1.000000
vn 0.000000 0.000000 1.000000
vn 0.000000 0.000000 1.000000
vn 1.000000 0.000000 0.000000
vn 1.000000 0.000000 0.000000
vn 1.000000 0.000000 0.000000
vn 1.000000 0.000000 0.000000
vn 0.000000 0.000000 -1.000000
vn 0.000000 0.000000 -1.000000
vn 0.000000 0.000000 -1.000000
vn 0.000000 0.000000 -1.000000
vn -1.000000 0.000000 0.000000
vn -1.000000 0.000000 0.000000
vn -1.000000 0.000000 0.000000
vn -1.000000 0.000000 0.000000
vn 0.000000 -1.000000 0.000000
vn 0.000000 -1.000000 0.000000
vn 0.000000 -1.000000 0.000000
vn 0.000000 -1.000000 0.000000
vn 0.000000 1.000000 0.000000
vn 0.000000 1.000000 0.000000
vn 0.000000 1.000000 0.000000
vn 0.000000 1.000000 0.000000
vn 0.000000 0.000000 1.000000
vn 0.000000 0.000000 1.000000
vn 0.000000 0.000000 1.000000
vn 0.000000 0.000000 1.000000
vn 1.000000 0.000000 0.000000
vn 1.000000 0.000000 0.000000
vn 1.000000 0.000000 0.000000
vn 1.000000 0.000000 0.000000
vn 0.000000 0.000000 -1.000000
vn 0.000000 0.000000 -1.000000
vn 0.000000 0.000000 -1.000000
vn 0.000000 0.000000 -1.000000
vn -1.000000 0.000000 0.000000
vn -1.000000 0.000000 0.000000
vn -1.000000 0.000000 0.000000
vn -1.000000 0.000000 0.000000
vn 0.000000 -1.000000 0.000000
vn 0.000000 -1.000000 0.000000
vn 0.000000 -1.000000 0.000000
vn 0.000000 -1.000000 0.000000
vn 0.000000 1.000000 0.000000
vn 0.000000 1.000000 0.000000
vn 0.000000 1.000000 0.000000
vn 0.000000 1.000000 0.000000
vn 0.000000 0.000000 1.000000
vn 0.000000 0.000000 1.000000
vn 0.000000 0.000000 1.000000
vn 0.000000 0.000000 1.000000
vn 1.000000 0.000000 0.000000
vn 1.000000 0.000000 0.000000
vn 1.000000 0.000000 0.000000
vn 1.000000 0.000000 0.000000
vn 0.000000 0.000000 -1.000000
vn 0.000000 0.000000 -1.000000
vn 0.000000 0.000000 -1.000000
vn 0.000000 0.000000 -1.000000
vn -1.000000 0.000000 0.000000
vn -1.000000 0.000000 0.000000
vn -1.000000 0.000000 0.000000
vn -1.000000 0.000000 0.000000
vn 0.000000 -1.000000 0.000000
vn 0.000000 -1.000000 0.000000
vn 0.000000 -1.000000 0.000000
vn 0.000000 -1.000000 0.000000
vn 0.000000 1.000000 0.000000
vn 0.000000 1.000000 0.000000
vn 0.000000 1.000000 0.000000
vn 0.000000 1.000000 0.000000
vn 0.000000 0.000000 1.000000
vn 0.000000 0.000000 1.000000
vn 0.000000 0.000000 1.000000
vn 0.000000 0.000000 1.000000
vn 1.000000 0.000000 0.000000
vn 1.000000 0.000000 0.000000
vn 1.000000 0.000000 0.000000
vn 1.000000 0.000000 0.000000
vn 0.000000 0.000000 -1.000000
vn 0.000000 0.000000 -1.000000
vn 0.000000 0.000000 -1.000000
vn 0.000000 0.000000 -1.000000
vn -1.000000 0.000000 0.000000
vn -1.000000 0.000000 0.000000
vn -1.000000 0.000000 0.000000
vn -1.000000 0.000000 0.000000
s off
g polySurface5
usemtl lambert3SG
f 1/1/1 3/2/2 4/3/3 2/4/4
f 5/5/5 6/6/6 8/7/7 7/8/8
f 1/9/9 2/10/10 6/6/11 5/5/12
f 2/10/13 4/11/14 8/12/15 6/6/16
f 4/11/17 3/13/18 7/14/19 8/12/20
f 3/15/21 1/9/22 5/5/23 7/16/24
f 9/17/25 11/18/26 12/19/27 10/20/28
f 13/21/29 14/22/30 16/23/31 15/24/32
f 9/25/33 10/26/34 14/22/35 13/21/36
f 10/26/37 12/27/38 16/28/39 14/22/40
f 12/27/41 11/29/42 15/30/43 16/28/44
f 11/31/45 9/25/46 13/21/47 15/32/48
f 17/33/49 19/34/50 20/35/51 18/36/52
f 21/37/53 22/38/54 24/39/55 23/40/56
f 17/41/57 18/42/58 22/38/59 21/37/60
f 18/42/61 20/43/62 24/44/63 22/38/64
f 20/43/65 19/45/66 23/46/67 24/44/68
f 19/47/69 17/41/70 21/37/71 23/48/72
f 25/49/73 27/50/74 28/51/75 26/52/76
f 29/53/77 30/54/78 32/55/79 31/56/80
f 25/57/81 26/58/82 30/54/83 29/53/84
f 26/58/85 28/59/86 32/60/87 30/54/88
f 28/59/89 27/61/90 31/62/91 32/60/92
f 27/63/93 25/57/94 29/53/95 31/64/96
f 33/65/97 35/66/98 36/67/99 34/68/100
f 37/69/101 38/70/102 40/71/103 39/72/104
f 33/73/105 34/74/106 38/70/107 37/69/108
f 34/74/109 36/75/110 40/76/111 38/70/112
f 36/75/113 35/77/114 39/78/115 40/76/116
f 35/79/117 33/73/118 37/69/119 39/80/120
f 41/81/121 43/82/122 44/83/123 42/84/124
f 45/85/125 46/86/126 48/87/127 47/88/128
f 41/89/129 42/90/130 46/86/131 45/85/132
f 42/90/133 44/91/134 48/92/135 46/86/136
f 44/91/137 43/93/138 47/94/139 48/92/140
f 43/95/141 41/89/142 45/85/143 47/96/144
